<?xml version="1.0" encoding="UTF-8" standalone="no"?>
<!-- Created with Inkscape (http://www.inkscape.org/) -->

<svg
   width="257.31384mm"
   height="94.72348mm"
   viewBox="0 0 257.31384 94.72348"
   version="1.1"
   id="svg5"
   xml:space="preserve"
   inkscape:version="1.2.2 (b0a8486, 2022-12-01)"
   sodipodi:docname="logos.svg"
   xmlns:inkscape="http://www.inkscape.org/namespaces/inkscape"
   xmlns:sodipodi="http://sodipodi.sourceforge.net/DTD/sodipodi-0.dtd"
   xmlns:xlink="http://www.w3.org/1999/xlink"
   xmlns="http://www.w3.org/2000/svg"
   xmlns:svg="http://www.w3.org/2000/svg"><sodipodi:namedview
     id="namedview7"
     pagecolor="#ffffff"
     bordercolor="#000000"
     borderopacity="0.25"
     inkscape:showpageshadow="2"
     inkscape:pageopacity="0.0"
     inkscape:pagecheckerboard="0"
     inkscape:deskcolor="#d1d1d1"
     inkscape:document-units="mm"
     showgrid="false"
     inkscape:zoom="0.89050814"
     inkscape:cx="802.91237"
     inkscape:cy="1943.2725"
     inkscape:window-width="1920"
     inkscape:window-height="1147"
     inkscape:window-x="0"
     inkscape:window-y="25"
     inkscape:window-maximized="1"
     inkscape:current-layer="layer1" /><defs
     id="defs2"><linearGradient
       id="linearGradient3656"
       inkscape:swatch="solid"><stop
         style="stop-color:#000000;stop-opacity:1;"
         offset="0"
         id="stop3654" /></linearGradient><linearGradient
       inkscape:collect="always"
       xlink:href="#linearGradient3656"
       id="linearGradient3658"
       x1="-85.040375"
       y1="547.43372"
       x2="16.220144"
       y2="547.43372"
       gradientUnits="userSpaceOnUse"
       gradientTransform="matrix(0.47385913,0,0,0.30367954,134.84911,374.38734)" /><clipPath
       clipPathUnits="userSpaceOnUse"
       id="clipPath4547"><rect
         style="fill:#000000;stroke-width:0.264583"
         id="rect4549"
         width="8.3035126"
         height="61.744072"
         x="207.37491"
         y="546.96735" /></clipPath><clipPath
       clipPathUnits="userSpaceOnUse"
       id="clipPath4547-8"><rect
         style="fill:#000000;stroke-width:0.264583"
         id="rect4549-5"
         width="8.3035126"
         height="61.744072"
         x="207.37491"
         y="546.96735" /></clipPath><clipPath
       clipPathUnits="userSpaceOnUse"
       id="clipPath4547-8-3"><rect
         style="fill:#000000;stroke-width:0.264583"
         id="rect4549-5-7"
         width="8.3035126"
         height="61.744072"
         x="207.37491"
         y="546.96735" /></clipPath><clipPath
       clipPathUnits="userSpaceOnUse"
       id="clipPath4547-5"><rect
         style="fill:#000000;stroke-width:0.264583"
         id="rect4549-6"
         width="8.3035126"
         height="61.744072"
         x="207.37491"
         y="546.96735" /></clipPath><clipPath
       clipPathUnits="userSpaceOnUse"
       id="clipPath4547-8-8"><rect
         style="fill:#000000;stroke-width:0.264583"
         id="rect4549-5-5"
         width="8.3035126"
         height="61.744072"
         x="207.37491"
         y="546.96735" /></clipPath><clipPath
       clipPathUnits="userSpaceOnUse"
       id="clipPath4547-8-3-3"><rect
         style="fill:#000000;stroke-width:0.264583"
         id="rect4549-5-7-7"
         width="8.3035126"
         height="61.744072"
         x="207.37491"
         y="546.96735" /></clipPath><clipPath
       clipPathUnits="userSpaceOnUse"
       id="clipPath4547-9"><rect
         style="fill:#000000;stroke-width:0.264583"
         id="rect4549-7"
         width="8.3035126"
         height="61.744072"
         x="207.37491"
         y="546.96735" /></clipPath><clipPath
       clipPathUnits="userSpaceOnUse"
       id="clipPath4547-8-31"><rect
         style="fill:#000000;stroke-width:0.264583"
         id="rect4549-5-0"
         width="8.3035126"
         height="61.744072"
         x="207.37491"
         y="546.96735" /></clipPath><clipPath
       clipPathUnits="userSpaceOnUse"
       id="clipPath4547-8-3-2"><rect
         style="fill:#000000;stroke-width:0.264583"
         id="rect4549-5-7-3"
         width="8.3035126"
         height="61.744072"
         x="207.37491"
         y="546.96735" /></clipPath><clipPath
       clipPathUnits="userSpaceOnUse"
       id="clipPath4547-80"><rect
         style="fill:#000000;stroke-width:0.264583"
         id="rect4549-4"
         width="8.3035126"
         height="61.744072"
         x="207.37491"
         y="546.96735" /></clipPath><clipPath
       clipPathUnits="userSpaceOnUse"
       id="clipPath4547-8-0"><rect
         style="fill:#000000;stroke-width:0.264583"
         id="rect4549-5-57"
         width="8.3035126"
         height="61.744072"
         x="207.37491"
         y="546.96735" /></clipPath><clipPath
       clipPathUnits="userSpaceOnUse"
       id="clipPath4547-8-3-0"><rect
         style="fill:#000000;stroke-width:0.264583"
         id="rect4549-5-7-0"
         width="8.3035126"
         height="61.744072"
         x="207.37491"
         y="546.96735" /></clipPath><clipPath
       clipPathUnits="userSpaceOnUse"
       id="clipPath4547-3"><rect
         style="fill:#000000;stroke-width:0.264583"
         id="rect4549-0"
         width="8.3035126"
         height="61.744072"
         x="207.37491"
         y="546.96735" /></clipPath><clipPath
       clipPathUnits="userSpaceOnUse"
       id="clipPath4547-8-4"><rect
         style="fill:#000000;stroke-width:0.264583"
         id="rect4549-5-8"
         width="8.3035126"
         height="61.744072"
         x="207.37491"
         y="546.96735" /></clipPath><clipPath
       clipPathUnits="userSpaceOnUse"
       id="clipPath4547-8-3-7"><rect
         style="fill:#000000;stroke-width:0.264583"
         id="rect4549-5-7-5"
         width="8.3035126"
         height="61.744072"
         x="207.37491"
         y="546.96735" /></clipPath><clipPath
       clipPathUnits="userSpaceOnUse"
       id="clipPath4547-7"><rect
         style="fill:#000000;stroke-width:0.264583"
         id="rect4549-9"
         width="8.3035126"
         height="61.744072"
         x="207.37491"
         y="546.96735" /></clipPath><clipPath
       clipPathUnits="userSpaceOnUse"
       id="clipPath4547-8-5"><rect
         style="fill:#000000;stroke-width:0.264583"
         id="rect4549-5-3"
         width="8.3035126"
         height="61.744072"
         x="207.37491"
         y="546.96735" /></clipPath><clipPath
       clipPathUnits="userSpaceOnUse"
       id="clipPath4547-8-3-33"><rect
         style="fill:#000000;stroke-width:0.264583"
         id="rect4549-5-7-8"
         width="8.3035126"
         height="61.744072"
         x="207.37491"
         y="546.96735" /></clipPath><clipPath
       clipPathUnits="userSpaceOnUse"
       id="clipPath4547-0"><rect
         style="fill:#000000;stroke-width:0.264583"
         id="rect4549-01"
         width="8.3035126"
         height="61.744072"
         x="207.37491"
         y="546.96735" /></clipPath><clipPath
       clipPathUnits="userSpaceOnUse"
       id="clipPath4547-8-03"><rect
         style="fill:#000000;stroke-width:0.264583"
         id="rect4549-5-00"
         width="8.3035126"
         height="61.744072"
         x="207.37491"
         y="546.96735" /></clipPath><clipPath
       clipPathUnits="userSpaceOnUse"
       id="clipPath4547-8-3-38"><rect
         style="fill:#000000;stroke-width:0.264583"
         id="rect4549-5-7-36"
         width="8.3035126"
         height="61.744072"
         x="207.37491"
         y="546.96735" /></clipPath><clipPath
       clipPathUnits="userSpaceOnUse"
       id="clipPath4547-91"><rect
         style="fill:#000000;stroke-width:0.264583"
         id="rect4549-09"
         width="8.3035126"
         height="61.744072"
         x="207.37491"
         y="546.96735" /></clipPath><clipPath
       clipPathUnits="userSpaceOnUse"
       id="clipPath4547-8-30"><rect
         style="fill:#000000;stroke-width:0.264583"
         id="rect4549-5-03"
         width="8.3035126"
         height="61.744072"
         x="207.37491"
         y="546.96735" /></clipPath><clipPath
       clipPathUnits="userSpaceOnUse"
       id="clipPath4547-8-3-01"><rect
         style="fill:#000000;stroke-width:0.264583"
         id="rect4549-5-7-9"
         width="8.3035126"
         height="61.744072"
         x="207.37491"
         y="546.96735" /></clipPath><clipPath
       clipPathUnits="userSpaceOnUse"
       id="clipPath4547-31"><rect
         style="fill:#000000;stroke-width:0.264583"
         id="rect4549-1"
         width="8.3035126"
         height="61.744072"
         x="207.37491"
         y="546.96735" /></clipPath><clipPath
       clipPathUnits="userSpaceOnUse"
       id="clipPath4547-8-50"><rect
         style="fill:#000000;stroke-width:0.264583"
         id="rect4549-5-84"
         width="8.3035126"
         height="61.744072"
         x="207.37491"
         y="546.96735" /></clipPath><clipPath
       clipPathUnits="userSpaceOnUse"
       id="clipPath4547-8-3-9"><rect
         style="fill:#000000;stroke-width:0.264583"
         id="rect4549-5-7-30"
         width="8.3035126"
         height="61.744072"
         x="207.37491"
         y="546.96735" /></clipPath><clipPath
       clipPathUnits="userSpaceOnUse"
       id="clipPath4547-71"><rect
         style="fill:#000000;stroke-width:0.264583"
         id="rect4549-74"
         width="8.3035126"
         height="61.744072"
         x="207.37491"
         y="546.96735" /></clipPath><clipPath
       clipPathUnits="userSpaceOnUse"
       id="clipPath4547-8-51"><rect
         style="fill:#000000;stroke-width:0.264583"
         id="rect4549-5-78"
         width="8.3035126"
         height="61.744072"
         x="207.37491"
         y="546.96735" /></clipPath><clipPath
       clipPathUnits="userSpaceOnUse"
       id="clipPath4547-8-3-25"><rect
         style="fill:#000000;stroke-width:0.264583"
         id="rect4549-5-7-4"
         width="8.3035126"
         height="61.744072"
         x="207.37491"
         y="546.96735" /></clipPath><clipPath
       clipPathUnits="userSpaceOnUse"
       id="clipPath4547-6"><rect
         style="fill:#000000;stroke-width:0.264583"
         id="rect4549-40"
         width="8.3035126"
         height="61.744072"
         x="207.37491"
         y="546.96735" /></clipPath><clipPath
       clipPathUnits="userSpaceOnUse"
       id="clipPath4547-8-82"><rect
         style="fill:#000000;stroke-width:0.264583"
         id="rect4549-5-06"
         width="8.3035126"
         height="61.744072"
         x="207.37491"
         y="546.96735" /></clipPath><clipPath
       clipPathUnits="userSpaceOnUse"
       id="clipPath4547-8-3-07"><rect
         style="fill:#000000;stroke-width:0.264583"
         id="rect4549-5-7-2"
         width="8.3035126"
         height="61.744072"
         x="207.37491"
         y="546.96735" /></clipPath><clipPath
       clipPathUnits="userSpaceOnUse"
       id="clipPath4547-8-37"><rect
         style="fill:#000000;stroke-width:0.264583"
         id="rect4549-5-01"
         width="8.3035126"
         height="61.744072"
         x="207.37491"
         y="546.96735" /></clipPath><clipPath
       clipPathUnits="userSpaceOnUse"
       id="clipPath4547-8-3-34"><rect
         style="fill:#000000;stroke-width:0.264583"
         id="rect4549-5-7-37"
         width="8.3035126"
         height="61.744072"
         x="207.37491"
         y="546.96735" /></clipPath></defs><g
     inkscape:label="Layer 1"
     inkscape:groupmode="layer"
     id="layer1"
     transform="translate(-93.984766,-468.41915)"><text
       xml:space="preserve"
       style="font-size:33.5139px;line-height:0;font-family:'Nokia Pure Headline';-inkscape-font-specification:'Nokia Pure Headline';letter-spacing:8.99583px;fill:#000000;fill-opacity:1;stroke-width:0.264583"
       x="91.705818"
       y="492.28104"
       id="text1109-6-7"
       inkscape:export-filename="logo.png"
       inkscape:export-xdpi="96"
       inkscape:export-ydpi="96"><tspan
         sodipodi:role="line"
         style="font-style:normal;font-variant:normal;font-weight:normal;font-stretch:normal;font-size:33.5139px;font-family:'DM Sans';-inkscape-font-specification:'DM Sans';fill:#000000;fill-opacity:1;stroke-width:0.264583"
         x="91.705818"
         y="492.28104"
         id="tspan1225-5-9">PHOTONICS</tspan></text><text
       xml:space="preserve"
       style="font-size:33.5139px;font-family:'Nokia Pure Headline';-inkscape-font-specification:'Nokia Pure Headline';letter-spacing:3.96875px;fill:#000000;fill-opacity:1;stroke-width:0.264583"
       x="91.705818"
       y="527.74817"
       id="text1231-7-3"><tspan
         sodipodi:role="line"
         id="tspan1229-6-8"
         style="font-style:normal;font-variant:normal;font-weight:bold;font-stretch:normal;font-size:33.5139px;font-family:'DM Sans';-inkscape-font-specification:'DM Sans';fill:#000000;fill-opacity:1;stroke-width:0.264583"
         x="91.705818"
         y="527.74817">BOOTCAMP</tspan></text><rect
       style="fill:#000000;fill-opacity:0;stroke:url(#linearGradient3658);stroke-width:1.16269;stroke-linecap:round;stroke-linejoin:round;stroke-dasharray:none;stroke-opacity:1;paint-order:normal"
       id="rect1071"
       width="47.857845"
       height="8.4140034"
       x="94.614639"
       y="536.42474"
       ry="2.6659153"
       inkscape:label="laser" /><path
       style="fill:#000000;fill-opacity:0;stroke:#000000;stroke-width:1.065;stroke-linecap:butt;stroke-linejoin:round;stroke-dasharray:none;stroke-opacity:1;paint-order:normal"
       d="m 101.76633,536.53946 v 8.38076"
       id="path4491"
       inkscape:label="lasertail" /><path
       style="fill:#000000;fill-opacity:0;stroke:#000000;stroke-width:1.065;stroke-linecap:butt;stroke-linejoin:round;stroke-dasharray:none;stroke-opacity:1;paint-order:normal"
       d="m 134.36811,536.44475 v 8.38076"
       id="path4491-7"
       inkscape:label="lasercap" /><path
       style="fill:#000000;fill-opacity:0;stroke:#000000;stroke-width:1.48831;stroke-linecap:butt;stroke-linejoin:round;stroke-dasharray:none;stroke-opacity:1;paint-order:normal"
       d="m 114.18266,540.63513 h 7.7207"
       id="path4586"
       inkscape:label="laserswitch" /><path
       style="fill:#004693;fill-opacity:1;stroke:#004693;stroke-width:2.0387;stroke-linecap:butt;stroke-linejoin:round;stroke-dasharray:none;stroke-opacity:1;paint-order:normal"
       d="M 142.37149,540.6027 H 328.65735"
       id="path4586-0"
       inkscape:label="laserbeam" /><circle
       style="fill:#004693;fill-opacity:1;stroke:#004693;stroke-width:1.791;stroke-linecap:butt;stroke-linejoin:round;stroke-dasharray:none;stroke-opacity:1;paint-order:normal"
       id="path6979"
       cx="329.2395"
       cy="540.58893"
       inkscape:label="laserpoint"
       r="1.25" /><path
       id="rect4478"
       style="opacity:1;fill:#004693;fill-opacity:1;stroke-width:0.337354"
       d="m 208.67119,548.48685 3.18431,59.17036 3.1843,-59.17036 z m 1.36633,149.13191 -24.29361,3.4554 h 37.00033 v -1.64831 z"
       clip-path="url(#clipPath4547)"
       transform="matrix(0.35897433,0,0,0.32122663,253.70635,342.81066)" /><path
       id="rect4478-8"
       style="fill:#004693;fill-opacity:1;stroke-width:0.337354"
       d="m 208.67119,548.48685 3.18431,59.17036 3.1843,-59.17036 z m 1.36633,149.13191 -24.29361,3.4554 h 37.00033 v -1.64831 z"
       clip-path="url(#clipPath4547-8)"
       transform="matrix(0.13992637,0.02230486,-0.02207835,0.1131954,313.80151,464.57833)" /><path
       id="rect4478-8-7"
       style="fill:#004693;fill-opacity:1;stroke-width:0.337354"
       d="m 208.67119,548.48685 3.18431,59.17036 3.1843,-59.17036 z m 1.36633,149.13191 -24.29361,3.4554 h 37.00033 v -1.64831 z"
       clip-path="url(#clipPath4547-8-3)"
       transform="matrix(0.16121894,0.06655635,-0.06129648,0.1720024,333.62328,419.79168)" /><path
       id="rect4478-6"
       style="fill:#004693;fill-opacity:1;stroke-width:0.337354"
       d="m 208.67119,548.48685 3.18431,59.17036 3.1843,-59.17036 z m 1.36633,149.13191 -24.29361,3.4554 h 37.00033 v -1.64831 z"
       clip-path="url(#clipPath4547-5)"
       transform="matrix(0.31088089,0.17948716,-0.16061331,0.27819042,362.99265,331.58684)" /><path
       id="rect4478-8-8"
       style="fill:#004693;fill-opacity:1;stroke-width:0.337354"
       d="m 208.67119,548.48685 3.18431,59.17036 3.1843,-59.17036 z m 1.36633,149.13191 -24.29361,3.4554 h 37.00033 v -1.64831 z"
       clip-path="url(#clipPath4547-8-8)"
       transform="matrix(0.11002736,0.08927976,-0.07571811,0.08699092,354.15275,467.08832)" /><path
       id="rect4478-8-7-6"
       style="fill:#004693;fill-opacity:1;stroke-width:0.337354"
       d="m 208.67119,548.48685 3.18431,59.17036 3.1843,-59.17036 z m 1.36633,149.13191 -24.29361,3.4554 h 37.00033 v -1.64831 z"
       clip-path="url(#clipPath4547-8-3-3)"
       transform="matrix(0.10634152,0.13824896,-0.13908551,0.11831021,393.71223,438.21282)" /><path
       id="rect4478-7"
       style="fill:#004693;fill-opacity:1;stroke-width:0.337354"
       d="m 208.67119,548.48685 3.18431,59.17036 3.1843,-59.17036 z m 1.36633,149.13191 -24.29361,3.4554 h 37.00033 v -1.64831 z"
       clip-path="url(#clipPath4547-9)"
       transform="matrix(0.17948717,0.31088089,-0.27819042,0.16061332,463.06337,376.60795)" /><path
       id="rect4478-8-1"
       style="fill:#004693;fill-opacity:1;stroke-width:0.337354"
       d="m 208.67119,548.48685 3.18431,59.17036 3.1843,-59.17036 z m 1.36633,149.13191 -24.29361,3.4554 h 37.00033 v -1.64831 z"
       clip-path="url(#clipPath4547-8-31)"
       transform="matrix(0.05064661,0.13233222,-0.10906927,0.03747729,387.65705,489.53572)" /><path
       id="rect4478-8-7-8"
       style="fill:#004693;fill-opacity:1;stroke-width:0.337354"
       d="m 208.67119,548.48685 3.18431,59.17036 3.1843,-59.17036 z m 1.36633,149.13191 -24.29361,3.4554 h 37.00033 v -1.64831 z"
       clip-path="url(#clipPath4547-8-3-2)"
       transform="matrix(0.02296998,0.17289787,-0.17960669,0.03291689,436.35431,484.30855)" /><path
       id="rect4478-5"
       style="fill:#004693;fill-opacity:1;stroke-width:0.337354"
       d="m 208.67119,548.48685 3.18431,59.17036 3.1843,-59.17036 z m 1.36633,149.13191 -24.29361,3.4554 h 37.00033 v -1.64831 z"
       clip-path="url(#clipPath4547-80)"
       transform="matrix(0,0.35897433,-0.32122663,0,527.48721,465.55113)" /><path
       id="rect4478-8-6"
       style="fill:#004693;fill-opacity:1;stroke-width:0.337354"
       d="m 208.67119,548.48685 3.18431,59.17036 3.1843,-59.17036 z m 1.36633,149.13191 -24.29361,3.4554 h 37.00033 v -1.64831 z"
       clip-path="url(#clipPath4547-8-0)"
       transform="matrix(-0.02230486,0.13992637,-0.1131954,-0.02207835,405.71954,525.64629)" /><path
       id="rect4478-8-7-7"
       style="fill:#004693;fill-opacity:1;stroke-width:0.337354"
       d="m 208.67119,548.48685 3.18431,59.17036 3.1843,-59.17036 z m 1.36633,149.13191 -24.29361,3.4554 h 37.00033 v -1.64831 z"
       clip-path="url(#clipPath4547-8-3-0)"
       transform="matrix(-0.06655635,0.16121894,-0.1720024,-0.06129648,450.50619,545.46806)" /><path
       id="rect4478-9"
       style="fill:#004693;fill-opacity:1;stroke-width:0.337354"
       d="m 208.67119,548.48685 3.18431,59.17036 3.1843,-59.17036 z m 1.36633,149.13191 -24.29361,3.4554 h 37.00033 v -1.64831 z"
       clip-path="url(#clipPath4547-3)"
       transform="matrix(-0.17948716,0.31088089,-0.27819042,-0.16061331,538.53505,574.67723)" /><path
       id="rect4478-8-5"
       style="fill:#004693;fill-opacity:1;stroke-width:0.337354"
       d="m 208.67119,548.48685 3.18431,59.17036 3.1843,-59.17036 z m 1.36633,149.13191 -24.29361,3.4554 h 37.00033 v -1.64831 z"
       clip-path="url(#clipPath4547-8-4)"
       transform="matrix(-0.08927976,0.11002736,-0.08699092,-0.07571811,403.03357,565.83733)" /><path
       id="rect4478-8-7-3"
       style="fill:#004693;fill-opacity:1;stroke-width:0.337354"
       d="m 208.67119,548.48685 3.18431,59.17036 3.1843,-59.17036 z m 1.36633,149.13191 -24.29361,3.4554 h 37.00033 v -1.64831 z"
       clip-path="url(#clipPath4547-8-3-7)"
       transform="matrix(-0.13824896,0.10634152,-0.11831021,-0.13908551,431.90906,605.39681)" /><path
       id="rect4478-58"
       style="fill:#004693;fill-opacity:1;stroke-width:0.337354"
       d="m 208.67119,548.48685 3.18431,59.17036 3.1843,-59.17036 z m 1.36633,149.13191 -24.29361,3.4554 h 37.00033 v -1.64831 z"
       clip-path="url(#clipPath4547-7)"
       transform="matrix(-0.31088089,0.17948716,-0.16061331,-0.27819042,493.9125,674.50881)" /><path
       id="rect4478-8-9"
       style="fill:#004693;fill-opacity:1;stroke-width:0.337354"
       d="m 208.67119,548.48685 3.18431,59.17036 3.1843,-59.17036 z m 1.36633,149.13191 -24.29361,3.4554 h 37.00033 v -1.64831 z"
       clip-path="url(#clipPath4547-8-5)"
       transform="matrix(-0.13233222,0.05064661,-0.03747729,-0.10906927,380.98473,599.10249)" /><path
       id="rect4478-8-7-60"
       style="fill:#004693;fill-opacity:1;stroke-width:0.337354"
       d="m 208.67119,548.48685 3.18431,59.17036 3.1843,-59.17036 z m 1.36633,149.13191 -24.29361,3.4554 h 37.00033 v -1.64831 z"
       clip-path="url(#clipPath4547-8-3-33)"
       transform="matrix(-0.17289787,0.02296998,-0.03291689,-0.17960669,386.2119,647.79976)" /><path
       id="rect4478-0"
       style="fill:#004693;fill-opacity:1;stroke-width:0.337354"
       d="m 208.67119,548.48685 3.18431,59.17036 3.1843,-59.17036 z m 1.36633,149.13191 -24.29361,3.4554 h 37.00033 v -1.64831 z"
       clip-path="url(#clipPath4547-0)"
       transform="matrix(-0.35897433,0,0,-0.32122663,405.44761,739.33124)" /><path
       id="rect4478-8-4"
       style="fill:#004693;fill-opacity:1;stroke-width:0.337354"
       d="m 208.67119,548.48685 3.18431,59.17036 3.1843,-59.17036 z m 1.36633,149.13191 -24.29361,3.4554 h 37.00033 v -1.64831 z"
       clip-path="url(#clipPath4547-8-03)"
       transform="matrix(-0.13992637,-0.02230486,0.02207835,-0.1131954,345.35245,617.56357)" /><path
       id="rect4478-8-7-0"
       style="fill:#004693;fill-opacity:1;stroke-width:0.337354"
       d="m 208.67119,548.48685 3.18431,59.17036 3.1843,-59.17036 z m 1.36633,149.13191 -24.29361,3.4554 h 37.00033 v -1.64831 z"
       clip-path="url(#clipPath4547-8-3-38)"
       transform="matrix(-0.16121894,-0.06655635,0.06129648,-0.1720024,325.53068,662.35022)" /><path
       id="rect4478-86"
       style="fill:#004693;fill-opacity:1;stroke-width:0.337354"
       d="m 208.67119,548.48685 3.18431,59.17036 3.1843,-59.17036 z m 1.36633,149.13191 -24.29361,3.4554 h 37.00033 v -1.64831 z"
       clip-path="url(#clipPath4547-91)"
       transform="matrix(-0.31088089,-0.17948717,0.16061332,-0.27819042,296.32152,750.45878)" /><path
       id="rect4478-8-90"
       style="fill:#004693;fill-opacity:1;stroke-width:0.337354"
       d="m 208.67119,548.48685 3.18431,59.17036 3.1843,-59.17036 z m 1.36633,149.13191 -24.29361,3.4554 h 37.00033 v -1.64831 z"
       clip-path="url(#clipPath4547-8-30)"
       transform="matrix(-0.11002736,-0.08927976,0.07571811,-0.08699092,305.16141,614.9573)" /><path
       id="rect4478-8-7-1"
       style="fill:#004693;fill-opacity:1;stroke-width:0.337354"
       d="m 208.67119,548.48685 3.18431,59.17036 3.1843,-59.17036 z m 1.36633,149.13191 -24.29361,3.4554 h 37.00033 v -1.64831 z"
       clip-path="url(#clipPath4547-8-3-01)"
       transform="matrix(-0.10634152,-0.13824896,0.13908551,-0.11831021,265.60193,643.83279)" /><path
       id="rect4478-52"
       style="fill:#004693;fill-opacity:1;stroke-width:0.337354"
       d="m 208.67119,548.48685 3.18431,59.17036 3.1843,-59.17036 z m 1.36633,149.13191 -24.29361,3.4554 h 37.00033 v -1.64831 z"
       clip-path="url(#clipPath4547-31)"
       transform="matrix(-0.17948717,-0.31088089,0.27819042,-0.16061332,196.01165,706.39424)" /><path
       id="rect4478-8-3"
       style="fill:#004693;fill-opacity:1;stroke-width:0.337354"
       d="m 208.67119,548.48685 3.18431,59.17036 3.1843,-59.17036 z m 1.36633,149.13191 -24.29361,3.4554 h 37.00033 v -1.64831 z"
       clip-path="url(#clipPath4547-8-50)"
       transform="matrix(-0.05064661,-0.13233222,0.10906927,-0.03747729,271.41796,593.46647)" /><path
       id="rect4478-8-7-87"
       style="fill:#004693;fill-opacity:1;stroke-width:0.337354"
       d="m 208.67119,548.48685 3.18431,59.17036 3.1843,-59.17036 z m 1.36633,149.13191 -24.29361,3.4554 h 37.00033 v -1.64831 z"
       clip-path="url(#clipPath4547-8-3-9)"
       transform="matrix(-0.02296998,-0.17289787,0.17960669,-0.03291689,222.7207,598.69364)" /><path
       id="rect4478-53"
       style="fill:#004693;fill-opacity:1;stroke-width:0.337354"
       d="m 208.67119,548.48685 3.18431,59.17036 3.1843,-59.17036 z m 1.36633,149.13191 -24.29361,3.4554 h 37.00033 v -1.64831 z"
       clip-path="url(#clipPath4547-71)"
       transform="matrix(0.31088089,-0.17948716,0.16061331,0.27819042,164.44638,406.77933)" /><path
       id="rect4478-8-0"
       style="fill:#004693;fill-opacity:1;stroke-width:0.337354"
       d="m 208.67119,548.48685 3.18431,59.17036 3.1843,-59.17036 z m 1.36633,149.13191 -24.29361,3.4554 h 37.00033 v -1.64831 z"
       clip-path="url(#clipPath4547-8-51)"
       transform="matrix(0.13233222,-0.05064661,0.03747729,0.10906927,277.37415,482.18564)" /><path
       id="rect4478-8-7-19"
       style="fill:#004693;fill-opacity:1;stroke-width:0.337354"
       d="m 208.67119,548.48685 3.18431,59.17036 3.1843,-59.17036 z m 1.36633,149.13191 -24.29361,3.4554 h 37.00033 v -1.64831 z"
       clip-path="url(#clipPath4547-8-3-25)"
       transform="matrix(0.17289787,-0.02296998,0.03291689,0.17960669,272.14698,433.48838)" /><path
       id="rect4478-98"
       style="fill:#004693;fill-opacity:1;stroke-width:0.337354"
       d="m 208.67119,548.48685 3.18431,59.17036 3.1843,-59.17036 z m 1.36633,149.13191 -24.29361,3.4554 h 37.00033 v -1.64831 z"
       clip-path="url(#clipPath4547-6)"
       transform="matrix(0.17948717,-0.31088089,0.27819042,0.16061332,119.91996,507.19472)" /><path
       id="rect4478-8-11"
       style="fill:#004693;fill-opacity:1;stroke-width:0.337354"
       d="m 208.67119,548.48685 3.18431,59.17036 3.1843,-59.17036 z m 1.36633,149.13191 -24.29361,3.4554 h 37.00033 v -1.64831 z"
       clip-path="url(#clipPath4547-8-82)"
       transform="matrix(0.08927976,-0.11002736,0.08699092,0.07571811,255.42143,516.03462)" /><path
       id="rect4478-8-7-61"
       style="fill:#004693;fill-opacity:1;stroke-width:0.337354"
       d="m 208.67119,548.48685 3.18431,59.17036 3.1843,-59.17036 z m 1.36633,149.13191 -24.29361,3.4554 h 37.00033 v -1.64831 z"
       clip-path="url(#clipPath4547-8-3-07)"
       transform="matrix(0.13824896,-0.10634152,0.11831021,0.13908551,226.54594,476.47513)" /><path
       id="rect4478-8-12"
       style="fill:#004693;fill-opacity:1;stroke-width:0.337354"
       d="m 208.67119,548.48685 3.18431,59.17036 3.1843,-59.17036 z m 1.36633,149.13191 -24.29361,3.4554 h 37.00033 v -1.64831 z"
       clip-path="url(#clipPath4547-8-37)"
       transform="matrix(0.02230486,-0.13992637,0.1131954,0.02207835,252.99569,555.7849)" /><path
       id="rect4478-8-7-66"
       style="fill:#004693;fill-opacity:1;stroke-width:0.337354"
       d="m 208.67119,548.48685 3.18431,59.17036 3.1843,-59.17036 z m 1.36633,149.13191 -24.29361,3.4554 h 37.00033 v -1.64831 z"
       clip-path="url(#clipPath4547-8-3-34)"
       transform="matrix(0.06655635,-0.16121894,0.1720024,0.06129648,208.20904,535.96313)" /></g></svg>
