<?xml version="1.0" encoding="UTF-8" standalone="no"?>
<!-- Created with Inkscape (http://www.inkscape.org/) -->

<svg
   width="43.711639mm"
   height="44.143433mm"
   viewBox="0 0 43.711639 44.143433"
   version="1.1"
   id="svg5"
   xml:space="preserve"
   inkscape:version="1.2.2 (b0a8486, 2022-12-01)"
   sodipodi:docname="logos.svg"
   xmlns:inkscape="http://www.inkscape.org/namespaces/inkscape"
   xmlns:sodipodi="http://sodipodi.sourceforge.net/DTD/sodipodi-0.dtd"
   xmlns="http://www.w3.org/2000/svg"
   xmlns:svg="http://www.w3.org/2000/svg"><sodipodi:namedview
     id="namedview7"
     pagecolor="#ffffff"
     bordercolor="#000000"
     borderopacity="0.25"
     inkscape:showpageshadow="2"
     inkscape:pageopacity="0.0"
     inkscape:pagecheckerboard="0"
     inkscape:deskcolor="#d1d1d1"
     inkscape:document-units="mm"
     showgrid="false"
     inkscape:zoom="0.89050814"
     inkscape:cx="802.91237"
     inkscape:cy="1943.2725"
     inkscape:window-width="1920"
     inkscape:window-height="1147"
     inkscape:window-x="0"
     inkscape:window-y="25"
     inkscape:window-maximized="1"
     inkscape:current-layer="layer1" /><defs
     id="defs2"><linearGradient
       id="linearGradient3656"
       inkscape:swatch="solid"><stop
         style="stop-color:#000000;stop-opacity:1;"
         offset="0"
         id="stop3654" /></linearGradient><clipPath
       clipPathUnits="userSpaceOnUse"
       id="clipPath4547-99"><rect
         style="fill:#000000;stroke-width:0.264583"
         id="rect4549-83"
         width="8.3035126"
         height="61.744072"
         x="207.37491"
         y="546.96735" /></clipPath><clipPath
       clipPathUnits="userSpaceOnUse"
       id="clipPath4547-8-7"><rect
         style="fill:#000000;stroke-width:0.264583"
         id="rect4549-5-1"
         width="8.3035126"
         height="61.744072"
         x="207.37491"
         y="546.96735" /></clipPath><clipPath
       clipPathUnits="userSpaceOnUse"
       id="clipPath4547-8-3-26"><rect
         style="fill:#000000;stroke-width:0.264583"
         id="rect4549-5-7-1"
         width="8.3035126"
         height="61.744072"
         x="207.37491"
         y="546.96735" /></clipPath><clipPath
       clipPathUnits="userSpaceOnUse"
       id="clipPath4547-5-7"><rect
         style="fill:#000000;stroke-width:0.264583"
         id="rect4549-6-6"
         width="8.3035126"
         height="61.744072"
         x="207.37491"
         y="546.96735" /></clipPath><clipPath
       clipPathUnits="userSpaceOnUse"
       id="clipPath4547-8-8-5"><rect
         style="fill:#000000;stroke-width:0.264583"
         id="rect4549-5-5-0"
         width="8.3035126"
         height="61.744072"
         x="207.37491"
         y="546.96735" /></clipPath><clipPath
       clipPathUnits="userSpaceOnUse"
       id="clipPath4547-8-3-3-4"><rect
         style="fill:#000000;stroke-width:0.264583"
         id="rect4549-5-7-7-5"
         width="8.3035126"
         height="61.744072"
         x="207.37491"
         y="546.96735" /></clipPath><clipPath
       clipPathUnits="userSpaceOnUse"
       id="clipPath4547-9-1"><rect
         style="fill:#000000;stroke-width:0.264583"
         id="rect4549-7-2"
         width="8.3035126"
         height="61.744072"
         x="207.37491"
         y="546.96735" /></clipPath><clipPath
       clipPathUnits="userSpaceOnUse"
       id="clipPath4547-8-31-3"><rect
         style="fill:#000000;stroke-width:0.264583"
         id="rect4549-5-0-7"
         width="8.3035126"
         height="61.744072"
         x="207.37491"
         y="546.96735" /></clipPath><clipPath
       clipPathUnits="userSpaceOnUse"
       id="clipPath4547-8-3-2-2"><rect
         style="fill:#000000;stroke-width:0.264583"
         id="rect4549-5-7-3-4"
         width="8.3035126"
         height="61.744072"
         x="207.37491"
         y="546.96735" /></clipPath><clipPath
       clipPathUnits="userSpaceOnUse"
       id="clipPath4547-80-1"><rect
         style="fill:#000000;stroke-width:0.264583"
         id="rect4549-4-8"
         width="8.3035126"
         height="61.744072"
         x="207.37491"
         y="546.96735" /></clipPath><clipPath
       clipPathUnits="userSpaceOnUse"
       id="clipPath4547-8-0-2"><rect
         style="fill:#000000;stroke-width:0.264583"
         id="rect4549-5-57-6"
         width="8.3035126"
         height="61.744072"
         x="207.37491"
         y="546.96735" /></clipPath><clipPath
       clipPathUnits="userSpaceOnUse"
       id="clipPath4547-8-3-0-0"><rect
         style="fill:#000000;stroke-width:0.264583"
         id="rect4549-5-7-0-3"
         width="8.3035126"
         height="61.744072"
         x="207.37491"
         y="546.96735" /></clipPath><clipPath
       clipPathUnits="userSpaceOnUse"
       id="clipPath4547-3-9"><rect
         style="fill:#000000;stroke-width:0.264583"
         id="rect4549-0-4"
         width="8.3035126"
         height="61.744072"
         x="207.37491"
         y="546.96735" /></clipPath><clipPath
       clipPathUnits="userSpaceOnUse"
       id="clipPath4547-8-4-9"><rect
         style="fill:#000000;stroke-width:0.264583"
         id="rect4549-5-8-6"
         width="8.3035126"
         height="61.744072"
         x="207.37491"
         y="546.96735" /></clipPath><clipPath
       clipPathUnits="userSpaceOnUse"
       id="clipPath4547-8-3-7-5"><rect
         style="fill:#000000;stroke-width:0.264583"
         id="rect4549-5-7-5-1"
         width="8.3035126"
         height="61.744072"
         x="207.37491"
         y="546.96735" /></clipPath><clipPath
       clipPathUnits="userSpaceOnUse"
       id="clipPath4547-7-3"><rect
         style="fill:#000000;stroke-width:0.264583"
         id="rect4549-9-2"
         width="8.3035126"
         height="61.744072"
         x="207.37491"
         y="546.96735" /></clipPath><clipPath
       clipPathUnits="userSpaceOnUse"
       id="clipPath4547-8-5-6"><rect
         style="fill:#000000;stroke-width:0.264583"
         id="rect4549-5-3-9"
         width="8.3035126"
         height="61.744072"
         x="207.37491"
         y="546.96735" /></clipPath><clipPath
       clipPathUnits="userSpaceOnUse"
       id="clipPath4547-8-3-33-0"><rect
         style="fill:#000000;stroke-width:0.264583"
         id="rect4549-5-7-8-0"
         width="8.3035126"
         height="61.744072"
         x="207.37491"
         y="546.96735" /></clipPath><clipPath
       clipPathUnits="userSpaceOnUse"
       id="clipPath4547-0-3"><rect
         style="fill:#000000;stroke-width:0.264583"
         id="rect4549-01-9"
         width="8.3035126"
         height="61.744072"
         x="207.37491"
         y="546.96735" /></clipPath><clipPath
       clipPathUnits="userSpaceOnUse"
       id="clipPath4547-8-03-5"><rect
         style="fill:#000000;stroke-width:0.264583"
         id="rect4549-5-00-3"
         width="8.3035126"
         height="61.744072"
         x="207.37491"
         y="546.96735" /></clipPath><clipPath
       clipPathUnits="userSpaceOnUse"
       id="clipPath4547-8-3-38-1"><rect
         style="fill:#000000;stroke-width:0.264583"
         id="rect4549-5-7-36-1"
         width="8.3035126"
         height="61.744072"
         x="207.37491"
         y="546.96735" /></clipPath><clipPath
       clipPathUnits="userSpaceOnUse"
       id="clipPath4547-91-2"><rect
         style="fill:#000000;stroke-width:0.264583"
         id="rect4549-09-6"
         width="8.3035126"
         height="61.744072"
         x="207.37491"
         y="546.96735" /></clipPath><clipPath
       clipPathUnits="userSpaceOnUse"
       id="clipPath4547-8-30-9"><rect
         style="fill:#000000;stroke-width:0.264583"
         id="rect4549-5-03-1"
         width="8.3035126"
         height="61.744072"
         x="207.37491"
         y="546.96735" /></clipPath><clipPath
       clipPathUnits="userSpaceOnUse"
       id="clipPath4547-8-3-01-9"><rect
         style="fill:#000000;stroke-width:0.264583"
         id="rect4549-5-7-9-0"
         width="8.3035126"
         height="61.744072"
         x="207.37491"
         y="546.96735" /></clipPath><clipPath
       clipPathUnits="userSpaceOnUse"
       id="clipPath4547-31-6"><rect
         style="fill:#000000;stroke-width:0.264583"
         id="rect4549-1-1"
         width="8.3035126"
         height="61.744072"
         x="207.37491"
         y="546.96735" /></clipPath><clipPath
       clipPathUnits="userSpaceOnUse"
       id="clipPath4547-8-50-7"><rect
         style="fill:#000000;stroke-width:0.264583"
         id="rect4549-5-84-3"
         width="8.3035126"
         height="61.744072"
         x="207.37491"
         y="546.96735" /></clipPath><clipPath
       clipPathUnits="userSpaceOnUse"
       id="clipPath4547-8-3-9-8"><rect
         style="fill:#000000;stroke-width:0.264583"
         id="rect4549-5-7-30-7"
         width="8.3035126"
         height="61.744072"
         x="207.37491"
         y="546.96735" /></clipPath><clipPath
       clipPathUnits="userSpaceOnUse"
       id="clipPath4547-71-0"><rect
         style="fill:#000000;stroke-width:0.264583"
         id="rect4549-74-3"
         width="8.3035126"
         height="61.744072"
         x="207.37491"
         y="546.96735" /></clipPath><clipPath
       clipPathUnits="userSpaceOnUse"
       id="clipPath4547-8-51-6"><rect
         style="fill:#000000;stroke-width:0.264583"
         id="rect4549-5-78-9"
         width="8.3035126"
         height="61.744072"
         x="207.37491"
         y="546.96735" /></clipPath><clipPath
       clipPathUnits="userSpaceOnUse"
       id="clipPath4547-8-3-25-1"><rect
         style="fill:#000000;stroke-width:0.264583"
         id="rect4549-5-7-4-4"
         width="8.3035126"
         height="61.744072"
         x="207.37491"
         y="546.96735" /></clipPath><clipPath
       clipPathUnits="userSpaceOnUse"
       id="clipPath4547-6-1"><rect
         style="fill:#000000;stroke-width:0.264583"
         id="rect4549-40-4"
         width="8.3035126"
         height="61.744072"
         x="207.37491"
         y="546.96735" /></clipPath><clipPath
       clipPathUnits="userSpaceOnUse"
       id="clipPath4547-8-82-6"><rect
         style="fill:#000000;stroke-width:0.264583"
         id="rect4549-5-06-1"
         width="8.3035126"
         height="61.744072"
         x="207.37491"
         y="546.96735" /></clipPath><clipPath
       clipPathUnits="userSpaceOnUse"
       id="clipPath4547-8-3-07-0"><rect
         style="fill:#000000;stroke-width:0.264583"
         id="rect4549-5-7-2-2"
         width="8.3035126"
         height="61.744072"
         x="207.37491"
         y="546.96735" /></clipPath><clipPath
       clipPathUnits="userSpaceOnUse"
       id="clipPath4547-8-37-4"><rect
         style="fill:#000000;stroke-width:0.264583"
         id="rect4549-5-01-0"
         width="8.3035126"
         height="61.744072"
         x="207.37491"
         y="546.96735" /></clipPath><clipPath
       clipPathUnits="userSpaceOnUse"
       id="clipPath4547-8-3-34-4"><rect
         style="fill:#000000;stroke-width:0.264583"
         id="rect4549-5-7-37-3"
         width="8.3035126"
         height="61.744072"
         x="207.37491"
         y="546.96735" /></clipPath></defs><g
     inkscape:label="Layer 1"
     inkscape:groupmode="layer"
     id="layer1"
     transform="translate(-274.84067,-615.45103)"><circle
       style="fill:#004693;fill-opacity:1;stroke:#004693;stroke-width:1.791;stroke-linecap:butt;stroke-linejoin:round;stroke-dasharray:none;stroke-opacity:1;paint-order:normal"
       id="path6979-1"
       cx="296.49323"
       cy="637.04071"
       inkscape:label="laserpoint"
       r="1.25" /><path
       id="rect4478-79"
       style="fill:#004693;fill-opacity:1;stroke-width:0.337354"
       d="m 208.67119,548.48685 3.18431,59.17036 3.1843,-59.17036 z m 1.36633,149.13191 -24.29361,3.4554 h 37.00033 v -1.64831 z"
       clip-path="url(#clipPath4547-99)"
       transform="matrix(0.35897433,0,0,0.32122663,220.96006,439.26243)" /><path
       id="rect4478-8-47"
       style="fill:#004693;fill-opacity:1;stroke-width:0.337354"
       d="m 208.67119,548.48685 3.18431,59.17036 3.1843,-59.17036 z m 1.36633,149.13191 -24.29361,3.4554 h 37.00033 v -1.64831 z"
       clip-path="url(#clipPath4547-8-7)"
       transform="matrix(0.13992637,0.02230486,-0.02207835,0.1131954,281.05522,561.0301)" /><path
       id="rect4478-8-7-01"
       style="fill:#004693;fill-opacity:1;stroke-width:0.337354"
       d="m 208.67119,548.48685 3.18431,59.17036 3.1843,-59.17036 z m 1.36633,149.13191 -24.29361,3.4554 h 37.00033 v -1.64831 z"
       clip-path="url(#clipPath4547-8-3-26)"
       transform="matrix(0.16121894,0.06655635,-0.06129648,0.1720024,300.87699,516.24345)" /><path
       id="rect4478-6-1"
       style="fill:#004693;fill-opacity:1;stroke-width:0.337354"
       d="m 208.67119,548.48685 3.18431,59.17036 3.1843,-59.17036 z m 1.36633,149.13191 -24.29361,3.4554 h 37.00033 v -1.64831 z"
       clip-path="url(#clipPath4547-5-7)"
       transform="matrix(0.31088089,0.17948716,-0.16061331,0.27819042,330.24636,428.03861)" /><path
       id="rect4478-8-8-5"
       style="fill:#004693;fill-opacity:1;stroke-width:0.337354"
       d="m 208.67119,548.48685 3.18431,59.17036 3.1843,-59.17036 z m 1.36633,149.13191 -24.29361,3.4554 h 37.00033 v -1.64831 z"
       clip-path="url(#clipPath4547-8-8-5)"
       transform="matrix(0.11002736,0.08927976,-0.07571811,0.08699092,321.40646,563.54009)" /><path
       id="rect4478-8-7-6-2"
       style="fill:#004693;fill-opacity:1;stroke-width:0.337354"
       d="m 208.67119,548.48685 3.18431,59.17036 3.1843,-59.17036 z m 1.36633,149.13191 -24.29361,3.4554 h 37.00033 v -1.64831 z"
       clip-path="url(#clipPath4547-8-3-3-4)"
       transform="matrix(0.10634152,0.13824896,-0.13908551,0.11831021,360.96594,534.66459)" /><path
       id="rect4478-7-2"
       style="fill:#004693;fill-opacity:1;stroke-width:0.337354"
       d="m 208.67119,548.48685 3.18431,59.17036 3.1843,-59.17036 z m 1.36633,149.13191 -24.29361,3.4554 h 37.00033 v -1.64831 z"
       clip-path="url(#clipPath4547-9-1)"
       transform="matrix(0.17948717,0.31088089,-0.27819042,0.16061332,430.31708,473.05972)" /><path
       id="rect4478-8-1-2"
       style="fill:#004693;fill-opacity:1;stroke-width:0.337354"
       d="m 208.67119,548.48685 3.18431,59.17036 3.1843,-59.17036 z m 1.36633,149.13191 -24.29361,3.4554 h 37.00033 v -1.64831 z"
       clip-path="url(#clipPath4547-8-31-3)"
       transform="matrix(0.05064661,0.13233222,-0.10906927,0.03747729,354.91076,585.98749)" /><path
       id="rect4478-8-7-8-4"
       style="fill:#004693;fill-opacity:1;stroke-width:0.337354"
       d="m 208.67119,548.48685 3.18431,59.17036 3.1843,-59.17036 z m 1.36633,149.13191 -24.29361,3.4554 h 37.00033 v -1.64831 z"
       clip-path="url(#clipPath4547-8-3-2-2)"
       transform="matrix(0.02296998,0.17289787,-0.17960669,0.03291689,403.60802,580.76032)" /><path
       id="rect4478-5-9"
       style="fill:#004693;fill-opacity:1;stroke-width:0.337354"
       d="m 208.67119,548.48685 3.18431,59.17036 3.1843,-59.17036 z m 1.36633,149.13191 -24.29361,3.4554 h 37.00033 v -1.64831 z"
       clip-path="url(#clipPath4547-80-1)"
       transform="matrix(0,0.35897433,-0.32122663,0,494.74092,562.0029)" /><path
       id="rect4478-8-6-7"
       style="fill:#004693;fill-opacity:1;stroke-width:0.337354"
       d="m 208.67119,548.48685 3.18431,59.17036 3.1843,-59.17036 z m 1.36633,149.13191 -24.29361,3.4554 h 37.00033 v -1.64831 z"
       clip-path="url(#clipPath4547-8-0-2)"
       transform="matrix(-0.02230486,0.13992637,-0.1131954,-0.02207835,372.97325,622.09806)" /><path
       id="rect4478-8-7-7-7"
       style="fill:#004693;fill-opacity:1;stroke-width:0.337354"
       d="m 208.67119,548.48685 3.18431,59.17036 3.1843,-59.17036 z m 1.36633,149.13191 -24.29361,3.4554 h 37.00033 v -1.64831 z"
       clip-path="url(#clipPath4547-8-3-0-0)"
       transform="matrix(-0.06655635,0.16121894,-0.1720024,-0.06129648,417.7599,641.91983)" /><path
       id="rect4478-9-2"
       style="fill:#004693;fill-opacity:1;stroke-width:0.337354"
       d="m 208.67119,548.48685 3.18431,59.17036 3.1843,-59.17036 z m 1.36633,149.13191 -24.29361,3.4554 h 37.00033 v -1.64831 z"
       clip-path="url(#clipPath4547-3-9)"
       transform="matrix(-0.17948716,0.31088089,-0.27819042,-0.16061331,505.78876,671.129)" /><path
       id="rect4478-8-5-0"
       style="fill:#004693;fill-opacity:1;stroke-width:0.337354"
       d="m 208.67119,548.48685 3.18431,59.17036 3.1843,-59.17036 z m 1.36633,149.13191 -24.29361,3.4554 h 37.00033 v -1.64831 z"
       clip-path="url(#clipPath4547-8-4-9)"
       transform="matrix(-0.08927976,0.11002736,-0.08699092,-0.07571811,370.28728,662.2891)" /><path
       id="rect4478-8-7-3-9"
       style="fill:#004693;fill-opacity:1;stroke-width:0.337354"
       d="m 208.67119,548.48685 3.18431,59.17036 3.1843,-59.17036 z m 1.36633,149.13191 -24.29361,3.4554 h 37.00033 v -1.64831 z"
       clip-path="url(#clipPath4547-8-3-7-5)"
       transform="matrix(-0.13824896,0.10634152,-0.11831021,-0.13908551,399.16277,701.84858)" /><path
       id="rect4478-58-0"
       style="fill:#004693;fill-opacity:1;stroke-width:0.337354"
       d="m 208.67119,548.48685 3.18431,59.17036 3.1843,-59.17036 z m 1.36633,149.13191 -24.29361,3.4554 h 37.00033 v -1.64831 z"
       clip-path="url(#clipPath4547-7-3)"
       transform="matrix(-0.31088089,0.17948716,-0.16061331,-0.27819042,461.16621,770.96058)" /><path
       id="rect4478-8-9-7"
       style="fill:#004693;fill-opacity:1;stroke-width:0.337354"
       d="m 208.67119,548.48685 3.18431,59.17036 3.1843,-59.17036 z m 1.36633,149.13191 -24.29361,3.4554 h 37.00033 v -1.64831 z"
       clip-path="url(#clipPath4547-8-5-6)"
       transform="matrix(-0.13233222,0.05064661,-0.03747729,-0.10906927,348.23844,695.55426)" /><path
       id="rect4478-8-7-60-1"
       style="fill:#004693;fill-opacity:1;stroke-width:0.337354"
       d="m 208.67119,548.48685 3.18431,59.17036 3.1843,-59.17036 z m 1.36633,149.13191 -24.29361,3.4554 h 37.00033 v -1.64831 z"
       clip-path="url(#clipPath4547-8-3-33-0)"
       transform="matrix(-0.17289787,0.02296998,-0.03291689,-0.17960669,353.46561,744.25153)" /><path
       id="rect4478-0-6"
       style="fill:#004693;fill-opacity:1;stroke-width:0.337354"
       d="m 208.67119,548.48685 3.18431,59.17036 3.1843,-59.17036 z m 1.36633,149.13191 -24.29361,3.4554 h 37.00033 v -1.64831 z"
       clip-path="url(#clipPath4547-0-3)"
       transform="matrix(-0.35897433,0,0,-0.32122663,372.70132,835.78301)" /><path
       id="rect4478-8-4-0"
       style="fill:#004693;fill-opacity:1;stroke-width:0.337354"
       d="m 208.67119,548.48685 3.18431,59.17036 3.1843,-59.17036 z m 1.36633,149.13191 -24.29361,3.4554 h 37.00033 v -1.64831 z"
       clip-path="url(#clipPath4547-8-03-5)"
       transform="matrix(-0.13992637,-0.02230486,0.02207835,-0.1131954,312.60616,714.01534)" /><path
       id="rect4478-8-7-0-9"
       style="fill:#004693;fill-opacity:1;stroke-width:0.337354"
       d="m 208.67119,548.48685 3.18431,59.17036 3.1843,-59.17036 z m 1.36633,149.13191 -24.29361,3.4554 h 37.00033 v -1.64831 z"
       clip-path="url(#clipPath4547-8-3-38-1)"
       transform="matrix(-0.16121894,-0.06655635,0.06129648,-0.1720024,292.78439,758.80199)" /><path
       id="rect4478-86-2"
       style="fill:#004693;fill-opacity:1;stroke-width:0.337354"
       d="m 208.67119,548.48685 3.18431,59.17036 3.1843,-59.17036 z m 1.36633,149.13191 -24.29361,3.4554 h 37.00033 v -1.64831 z"
       clip-path="url(#clipPath4547-91-2)"
       transform="matrix(-0.31088089,-0.17948717,0.16061332,-0.27819042,263.57523,846.91055)" /><path
       id="rect4478-8-90-9"
       style="fill:#004693;fill-opacity:1;stroke-width:0.337354"
       d="m 208.67119,548.48685 3.18431,59.17036 3.1843,-59.17036 z m 1.36633,149.13191 -24.29361,3.4554 h 37.00033 v -1.64831 z"
       clip-path="url(#clipPath4547-8-30-9)"
       transform="matrix(-0.11002736,-0.08927976,0.07571811,-0.08699092,272.41512,711.40907)" /><path
       id="rect4478-8-7-1-6"
       style="fill:#004693;fill-opacity:1;stroke-width:0.337354"
       d="m 208.67119,548.48685 3.18431,59.17036 3.1843,-59.17036 z m 1.36633,149.13191 -24.29361,3.4554 h 37.00033 v -1.64831 z"
       clip-path="url(#clipPath4547-8-3-01-9)"
       transform="matrix(-0.10634152,-0.13824896,0.13908551,-0.11831021,232.85564,740.28456)" /><path
       id="rect4478-52-0"
       style="fill:#004693;fill-opacity:1;stroke-width:0.337354"
       d="m 208.67119,548.48685 3.18431,59.17036 3.1843,-59.17036 z m 1.36633,149.13191 -24.29361,3.4554 h 37.00033 v -1.64831 z"
       clip-path="url(#clipPath4547-31-6)"
       transform="matrix(-0.17948717,-0.31088089,0.27819042,-0.16061332,163.26536,802.84601)" /><path
       id="rect4478-8-3-2"
       style="fill:#004693;fill-opacity:1;stroke-width:0.337354"
       d="m 208.67119,548.48685 3.18431,59.17036 3.1843,-59.17036 z m 1.36633,149.13191 -24.29361,3.4554 h 37.00033 v -1.64831 z"
       clip-path="url(#clipPath4547-8-50-7)"
       transform="matrix(-0.05064661,-0.13233222,0.10906927,-0.03747729,238.67167,689.91824)" /><path
       id="rect4478-8-7-87-8"
       style="fill:#004693;fill-opacity:1;stroke-width:0.337354"
       d="m 208.67119,548.48685 3.18431,59.17036 3.1843,-59.17036 z m 1.36633,149.13191 -24.29361,3.4554 h 37.00033 v -1.64831 z"
       clip-path="url(#clipPath4547-8-3-9-8)"
       transform="matrix(-0.02296998,-0.17289787,0.17960669,-0.03291689,189.97441,695.14541)" /><path
       id="rect4478-53-4"
       style="fill:#004693;fill-opacity:1;stroke-width:0.337354"
       d="m 208.67119,548.48685 3.18431,59.17036 3.1843,-59.17036 z m 1.36633,149.13191 -24.29361,3.4554 h 37.00033 v -1.64831 z"
       clip-path="url(#clipPath4547-71-0)"
       transform="matrix(0.31088089,-0.17948716,0.16061331,0.27819042,131.70009,503.2311)" /><path
       id="rect4478-8-0-4"
       style="fill:#004693;fill-opacity:1;stroke-width:0.337354"
       d="m 208.67119,548.48685 3.18431,59.17036 3.1843,-59.17036 z m 1.36633,149.13191 -24.29361,3.4554 h 37.00033 v -1.64831 z"
       clip-path="url(#clipPath4547-8-51-6)"
       transform="matrix(0.13233222,-0.05064661,0.03747729,0.10906927,244.62786,578.63741)" /><path
       id="rect4478-8-7-19-8"
       style="fill:#004693;fill-opacity:1;stroke-width:0.337354"
       d="m 208.67119,548.48685 3.18431,59.17036 3.1843,-59.17036 z m 1.36633,149.13191 -24.29361,3.4554 h 37.00033 v -1.64831 z"
       clip-path="url(#clipPath4547-8-3-25-1)"
       transform="matrix(0.17289787,-0.02296998,0.03291689,0.17960669,239.40069,529.94015)" /><path
       id="rect4478-98-0"
       style="fill:#004693;fill-opacity:1;stroke-width:0.337354"
       d="m 208.67119,548.48685 3.18431,59.17036 3.1843,-59.17036 z m 1.36633,149.13191 -24.29361,3.4554 h 37.00033 v -1.64831 z"
       clip-path="url(#clipPath4547-6-1)"
       transform="matrix(0.17948717,-0.31088089,0.27819042,0.16061332,87.173667,603.64649)" /><path
       id="rect4478-8-11-1"
       style="fill:#004693;fill-opacity:1;stroke-width:0.337354"
       d="m 208.67119,548.48685 3.18431,59.17036 3.1843,-59.17036 z m 1.36633,149.13191 -24.29361,3.4554 h 37.00033 v -1.64831 z"
       clip-path="url(#clipPath4547-8-82-6)"
       transform="matrix(0.08927976,-0.11002736,0.08699092,0.07571811,222.67514,612.48639)" /><path
       id="rect4478-8-7-61-5"
       style="fill:#004693;fill-opacity:1;stroke-width:0.337354"
       d="m 208.67119,548.48685 3.18431,59.17036 3.1843,-59.17036 z m 1.36633,149.13191 -24.29361,3.4554 h 37.00033 v -1.64831 z"
       clip-path="url(#clipPath4547-8-3-07-0)"
       transform="matrix(0.13824896,-0.10634152,0.11831021,0.13908551,193.79965,572.9269)" /><path
       id="rect4478-8-12-1"
       style="fill:#004693;fill-opacity:1;stroke-width:0.337354"
       d="m 208.67119,548.48685 3.18431,59.17036 3.1843,-59.17036 z m 1.36633,149.13191 -24.29361,3.4554 h 37.00033 v -1.64831 z"
       clip-path="url(#clipPath4547-8-37-4)"
       transform="matrix(0.02230486,-0.13992637,0.1131954,0.02207835,220.2494,652.23667)" /><path
       id="rect4478-8-7-66-1"
       style="fill:#004693;fill-opacity:1;stroke-width:0.337354"
       d="m 208.67119,548.48685 3.18431,59.17036 3.1843,-59.17036 z m 1.36633,149.13191 -24.29361,3.4554 h 37.00033 v -1.64831 z"
       clip-path="url(#clipPath4547-8-3-34-4)"
       transform="matrix(0.06655635,-0.16121894,0.1720024,0.06129648,175.46275,632.4149)" /><path
       style="fill:#004693;fill-opacity:1;stroke:#004693;stroke-width:2.07585;stroke-linecap:butt;stroke-linejoin:round;stroke-dasharray:none;stroke-opacity:1;paint-order:normal"
       d="m 274.84069,637.22679 h 21.48717"
       id="path4586-0-1"
       inkscape:label="laserbeam" /></g></svg>
